<svg id="Layer_1" data-name="Layer 1" xmlns="http://www.w3.org/2000/svg" viewBox="0 0 95.12 22"><defs><style>.label{stroke:none;}.wave{fill:#ea0029;stroke:none;}</style></defs><path class="label" d="M499.51,392.54V388H497.8v-.6h4.13v.6h-1.71v4.52Zm3.63-5.12h3.22v.6h-2.51v1.6h2.39v.59h-2.39v1.71h2.56v.62h-3.27Zm7.8,1.38a1,1,0,0,0-1.11-.88c-1.23,0-1.45,1.26-1.45,2.11s.27,2,1.44,2a1.11,1.11,0,0,0,.83-.31,1,1,0,0,0,.25-.54h.78a1.73,1.73,0,0,1-1.91,1.43c-1.8,0-2.15-1.59-2.15-2.58s.42-2.69,2.24-2.69a1.65,1.65,0,0,1,1.84,1.45Zm2.84-1.38v2.2h2.43v-2.2h.71v5.12h-.71v-2.31h-2.43v2.31h-.71v-5.12Zm5.29,0h1l2.52,4.23v-4.23h.65v5.12h-.91l-2.6-4.35v4.35h-.65Zm6.43.55a2.31,2.31,0,0,1,1.71-.68c1.42,0,2.32.9,2.32,2.64,0,1.36-.55,2.73-2.37,2.73s-2.31-1.24-2.31-2.65A3,3,0,0,1,525.5,388Zm.54,3.62a1.61,1.61,0,0,0,2.27,0,2.79,2.79,0,0,0,.46-1.67c0-1.16-.38-2-1.55-2s-1.63,1-1.63,2.09A2.62,2.62,0,0,0,526,391.59Zm5.17-4.17h.7v4.49h2.39v.63h-3.09Zm4.49.55a2.28,2.28,0,0,1,1.71-.68c1.42,0,2.31.9,2.31,2.64,0,1.36-.55,2.73-2.37,2.73S535,391.42,535,390A3,3,0,0,1,535.7,388Zm.54,3.62a1.4,1.4,0,0,0,1.13.47,1.44,1.44,0,0,0,1.14-.47,2.79,2.79,0,0,0,.46-1.67c0-1.16-.38-2-1.55-2s-1.63,1-1.63,2.09A2.62,2.62,0,0,0,536.24,391.59Zm8.51-2.89c-.07-.48-.46-.8-1.15-.8a1.47,1.47,0,0,0-1.16.43,2.46,2.46,0,0,0-.54,1.64,2.69,2.69,0,0,0,.46,1.61,1.76,1.76,0,0,0,1.37.51,3.47,3.47,0,0,0,1.11-.17v-1.51h-1.17v-.59h1.88v2.52a5.6,5.6,0,0,1-1.82.31,2.42,2.42,0,0,1-1.86-.64,2.74,2.74,0,0,1-.72-1.95,2.85,2.85,0,0,1,1.1-2.36,2.71,2.71,0,0,1,1.43-.37,2,2,0,0,1,1.51.55,1.24,1.24,0,0,1,.34.82Zm2.61-1.28h.71v5.12h-.71Zm2.72,0h3.22v.6h-2.51v1.6h2.39v.59h-2.39v1.71h2.56v.62h-3.27ZM555.4,391c0,.36.05,1,1.23,1s1.2-.66,1.2-.92c0-.57-.46-.69-1.18-.86a4.38,4.38,0,0,1-1.39-.46,1.14,1.14,0,0,1-.53-1c0-1.05,1-1.5,1.95-1.5a2,2,0,0,1,1.44.5,1.33,1.33,0,0,1,.31.88h-.74c0-.64-.57-.78-1.07-.78-.71,0-1.14.32-1.14.83s.3.61.92.76c1.22.31,1.36.33,1.65.53a1.17,1.17,0,0,1,.51,1c0,.91-.7,1.6-2,1.6a2,2,0,0,1-1.58-.58,1.57,1.57,0,0,1-.3-1Z" transform="translate(-465.17 -372.87)"/><path class="label" d="M498,375h2v4l3.11-4h2.33l-3.41,4.17,3.71,5.14h-2.49L500,379.51v4.74h-2Zm8.64,0h6.23v1.52h-4.23v2.22h4v1.51h-4v2.52H513v1.54h-6.37Zm9.44,0,1.91,4.24,2-4.24h2l-3.14,5.88v3.39h-2v-3.41L513.76,375Zm7.81,6.3A1.52,1.52,0,0,0,525.6,383c1.08,0,1.76-.52,1.76-1.3s-.58-1-1.76-1.25c-2.22-.55-3.43-1.21-3.43-2.82s1.1-2.88,3.68-2.88a3.49,3.49,0,0,1,2.81,1.09,2.68,2.68,0,0,1,.53,1.73h-1.92a1.38,1.38,0,0,0-1.51-1.42c-.92,0-1.53.5-1.53,1.26s.68,1,2,1.35c1.61.39,3.2.83,3.2,2.64s-1.4,3-4,3c-3.57,0-3.59-2.29-3.6-3.19Zm6.77-6.36h2v9.33h-2Zm9.92,2.88a1.86,1.86,0,0,0-.26-.94,1.78,1.78,0,0,0-1.56-.72c-2.27,0-2.72,2.11-2.72,3.54a3.74,3.74,0,0,0,.78,2.5,2.67,2.67,0,0,0,2.19.8,4.68,4.68,0,0,0,1.52-.18v-2h-1.81v-1.55h3.8v4.65a9.62,9.62,0,0,1-3.4.52c-2.12,0-3.22-.52-3.95-1.24a4.86,4.86,0,0,1-1.24-3.48c0-3.29,2.06-5.06,4.88-5.06a4.18,4.18,0,0,1,3.17,1.18,2.79,2.79,0,0,1,.67,1.94Zm3.64-2.86h2v3.72h3.52v-3.72h2v9.31h-2v-4.08h-3.54v4.08h-2Zm11.27,1.55h-2.77v-1.55h7.54v1.55h-2.76v7.76h-2Z" transform="translate(-465.17 -372.87)"/><path class="wave" d="M493.82,384.24c-.23,0-.71-.27-1.05-1.57-.54-2.08-.8-3.87-1.73-3.87s-1.34,1.79-1.89,3.87c-.32,1.23-.66,1.57-1.21,1.57s-1-.25-1.82-3.46c-.69-2.82-1.15-7.91-3.44-7.91s-3,6.64-3.27,7.92c-.36,1.58-1.26,3.45-2.39,3.45s-1.73-1.3-2.06-2.7c-.53-2.15-1.12-5.26-2.62-5.26s-2,2.58-2.67,5.39c-.39,1.65-1,2.57-2.11,2.57h-2.39a2,2,0,0,1,1.09,1.62c.38,2.36.67,3.82,1.5,3.82s1.12-1.26,1.6-3.22c.38-1.54,1-2.22,1.66-2.22,1,0,1.5,1.25,2.06,3.62,1.12,4.72,1.35,7,3.15,7s2.06-2.29,3.26-7c.52-2.06,1.49-3.62,2.62-3.62s1.95,1.51,2.36,2.72c.89,2.61,1.3,3.59,2.29,3.59s1.54-1.18,2.4-4c.55-1.79.63-2.28,2.24-2.28h2.42Z" transform="translate(-465.17 -372.87)"/></svg>
